# xmcd
# 
# Track frame offsets:
#     150
#     21987
#     34710
#     48895
#     68507
#     87180
#     99130
#     121665
#     137412
#     150092
#     171537
#     185997
#     215892
#     234607
#     251052
#     265127
#     276445
#     292180
#     315717
# 
# Disc length: 4504
# 
# Revision: 1
# Processed by: cddbd v1.5.2PL0 Copyright (c) Steve Scherf et al.
# Submitted via: BonkEnc v1.0.8
# 
DISCID=12119613
DTITLE=Ketil Bjornstad - Prelude
DYEAR=1985
DGENRE=Contemporary
TTITLE0=Prelude I
TTITLE1=Prelude II
TTITLE2=Prelude III
TTITLE3=Prelude IV
TTITLE4=Prelude V
TTITLE5=Prelude VI
TTITLE6=Prelude VII
TTITLE7=Prelude VIII
TTITLE8=Prelude IX
TTITLE9=Prelude X
TTITLE10=XI
TTITLE11=Prelude XII
TTITLE12=Prelude XIII
TTITLE13=Prelude XIV
TTITLE14=Prelude XV
TTITLE15=Prelude XVI
TTITLE16=Prelude XVII
TTITLE17=Prelude XVIII
TTITLE18=Prelude XIX
EXTD=YEAR: 1997
EXTT0=
EXTT1=
EXTT2=
EXTT3=
EXTT4=
EXTT5=
EXTT6=
EXTT7=
EXTT8=
EXTT9=
EXTT10=
EXTT11=
EXTT12=
EXTT13=
EXTT14=
EXTT15=
EXTT16=
EXTT17=
EXTT18=
PLAYORDER=
